# xmcd
#
# Track frame offsets:
#	150
#	14867
#	28732
#	40575
#	59844
#	77685
#	90816
#	105294
#	122475
#	138357
#	156582
#	172992
#
# Disc length: 2527 seconds
#
# Revision: 1
# Processed by: cddbd v1.5PL3 Copyright (c) Steve Scherf et al.
# Submitted via: CDex 1.50Beta5
#
DISCID=9209dd0c
DTITLE=石原裕次郎 - 石原裕次郎・男の世界
DYEAR=1900
DGENRE=Pop
TTITLE0=粋な別れ
TTITLE1=錆びたナイフ
TTITLE2=俺は待ってるぜ
TTITLE3=銀座の恋の物語
TTITLE4=二人の世界
TTITLE5=俺はお前に弱いんだ
TTITLE6=赤いハンカチ
TTITLE7=夕陽の丘
TTITLE8=別れの夜明け
TTITLE9=恋の町札幌
TTITLE10=ブランデーグラス
TTITLE11=夜霧よ今夜も有難う
EXTD=
EXTT0=
EXTT1=
EXTT2=
EXTT3=
EXTT4=
EXTT5=
EXTT6=
EXTT7=
EXTT8=
EXTT9=
EXTT10=
EXTT11=
PLAYORDER=
